<?xml version="1.0" standalone="no"?>
<svg xmlns:xlink="http://www.w3.org/1999/xlink" id="wave" style="transform:rotate(0deg); transition: 0.3s" viewBox="0 0 1440 210" version="1.1" xmlns="http://www.w3.org/2000/svg"><defs><linearGradient id="sw-gradient-0" x1="0" x2="0" y1="1" y2="0"><stop stop-color="rgba(255, 0, 200, 1)" offset="0%"/><stop stop-color="rgba(179, 0, 255, 1)" offset="100%"/></linearGradient></defs><path style="transform:translate(0, 0px); opacity:1" fill="url(#sw-gradient-0)" d="M0,42L26.7,56C53.3,70,107,98,160,112C213.3,126,267,126,320,119C373.3,112,427,98,480,80.5C533.3,63,587,42,640,28C693.3,14,747,7,800,7C853.3,7,907,14,960,38.5C1013.3,63,1067,105,1120,105C1173.3,105,1227,63,1280,49C1333.3,35,1387,49,1440,73.5C1493.3,98,1547,133,1600,154C1653.3,175,1707,182,1760,157.5C1813.3,133,1867,77,1920,59.5C1973.3,42,2027,63,2080,80.5C2133.3,98,2187,112,2240,129.5C2293.3,147,2347,168,2400,150.5C2453.3,133,2507,77,2560,56C2613.3,35,2667,49,2720,56C2773.3,63,2827,63,2880,52.5C2933.3,42,2987,21,3040,38.5C3093.3,56,3147,112,3200,129.5C3253.3,147,3307,126,3360,112C3413.3,98,3467,91,3520,105C3573.3,119,3627,154,3680,161C3733.3,168,3787,147,3813,136.5L3840,126L3840,210L3813.3,210C3786.7,210,3733,210,3680,210C3626.7,210,3573,210,3520,210C3466.7,210,3413,210,3360,210C3306.7,210,3253,210,3200,210C3146.7,210,3093,210,3040,210C2986.7,210,2933,210,2880,210C2826.7,210,2773,210,2720,210C2666.7,210,2613,210,2560,210C2506.7,210,2453,210,2400,210C2346.7,210,2293,210,2240,210C2186.7,210,2133,210,2080,210C2026.7,210,1973,210,1920,210C1866.7,210,1813,210,1760,210C1706.7,210,1653,210,1600,210C1546.7,210,1493,210,1440,210C1386.7,210,1333,210,1280,210C1226.7,210,1173,210,1120,210C1066.7,210,1013,210,960,210C906.7,210,853,210,800,210C746.7,210,693,210,640,210C586.7,210,533,210,480,210C426.7,210,373,210,320,210C266.7,210,213,210,160,210C106.7,210,53,210,27,210L0,210Z"/></svg>