<?xml version="1.0" standalone="no"?>
<svg xmlns:xlink="http://www.w3.org/1999/xlink" id="wave" style="transform:rotate(0deg); transition: 0.3s" viewBox="0 0 1440 120" version="1.1" xmlns="http://www.w3.org/2000/svg"><defs><linearGradient id="sw-gradient-0" x1="0" x2="0" y1="1" y2="0"><stop stop-color="rgba(255, 0, 200, 1)" offset="0%"/><stop stop-color="rgba(179, 0, 255, 1)" offset="100%"/></linearGradient></defs><path style="transform:translate(0, 0px); opacity:1" fill="url(#sw-gradient-0)" d="M0,48L60,58C120,68,240,88,360,92C480,96,600,84,720,76C840,68,960,64,1080,70C1200,76,1320,92,1440,100C1560,108,1680,108,1800,108C1920,108,2040,108,2160,100C2280,92,2400,76,2520,60C2640,44,2760,28,2880,34C3000,40,3120,68,3240,70C3360,72,3480,48,3600,48C3720,48,3840,72,3960,84C4080,96,4200,96,4320,88C4440,80,4560,64,4680,54C4800,44,4920,40,5040,34C5160,28,5280,20,5400,24C5520,28,5640,44,5760,42C5880,40,6000,20,6120,20C6240,20,6360,40,6480,56C6600,72,6720,84,6840,84C6960,84,7080,72,7200,70C7320,68,7440,76,7560,68C7680,60,7800,36,7920,24C8040,12,8160,12,8280,14C8400,16,8520,20,8580,22L8640,24L8640,120L8580,120C8520,120,8400,120,8280,120C8160,120,8040,120,7920,120C7800,120,7680,120,7560,120C7440,120,7320,120,7200,120C7080,120,6960,120,6840,120C6720,120,6600,120,6480,120C6360,120,6240,120,6120,120C6000,120,5880,120,5760,120C5640,120,5520,120,5400,120C5280,120,5160,120,5040,120C4920,120,4800,120,4680,120C4560,120,4440,120,4320,120C4200,120,4080,120,3960,120C3840,120,3720,120,3600,120C3480,120,3360,120,3240,120C3120,120,3000,120,2880,120C2760,120,2640,120,2520,120C2400,120,2280,120,2160,120C2040,120,1920,120,1800,120C1680,120,1560,120,1440,120C1320,120,1200,120,1080,120C960,120,840,120,720,120C600,120,480,120,360,120C240,120,120,120,60,120L0,120Z"/></svg>